<?xml version="1.0" encoding="UTF-8"?><svg id="Layer_1" xmlns="http://www.w3.org/2000/svg" viewBox="0 0 260.29 299"><defs><style>.cls-1{fill:#cc3920;}.cls-1,.cls-2{fill-rule:evenodd;}.cls-2{fill:#cccccc;}</style></defs><path id="Metal" class="cls-2" d="m72.11,152.19c.43-.02.76-2.37.92-2.91,1.03-3.56.25-3.29-3.77-4.15-1.1-.24-3.38.51-5.31.73-1.93.21-2.27.39-4.32,1.76-2.06,1.37-3.68,1.76-3.81,2.61-.13.86-.47,5.82-.26,6.72.21.9-.56,3.47-.51,5.95.04,2.48.6,4.88.81,6.68.21,1.8-.09,3.77.21,4.37.3.6.21,1.58,1.03,1.71.81.13.58-.58,1.18-.86.6-.28,1.2-.43,1.86-.04.66.39-.32.49,1.09,1.13,1.41.64,2.53,1.11,4.26,1.33,1.73.21,3.94.11,4.9-.06.96-.17,2.08-.15,2.59-.19.51-.04,1.01,1.07,1.37,2.18.36,1.11.86,1.03,1.84,1.05.98.02,2.59-.43,2.65-.88.06-.45-.21-4.43-.09-5.82.13-1.39.06-3.13.15-3.87.09-.75-.1-2.23-.22-2.51-.13-.29-1.11-.43-1.32.12-.2.55-.04,1.54-1.84,3.45-1.8,1.9-2.55,2.46-3.98,2.72-1.43.26-1.8.21-1.84.69-.04.47.11.88-1.03.94-1.13.06-2.23-.06-2.55-.11-.32-.04-.26-.54-.32-1.01-.06-.47-.81-.32-1.39-.73-.58-.41-2.05-.71-3.02-1.33-.96-.62-3.08-3.08-3.55-4.88-.47-1.8-.45-5.61-.21-7.41.24-1.8.9-2.35,2.59-4.37,1.69-2.01,4.45-3.3,5.27-3.45s.68-1.59.62-2.36c-.06-.77-.3-1.71.04-1.86.34-.15,1.16-.19,2.23-.15,1.07.04,1.28.06,1.26,1.61-.02,1.54-.41,2.57-.09,2.76.21.13,2.3.47,2.54.46h0Zm15.77,103.01c-3.04-3.68-3.85-4.54-4.28-5.61-.43-1.07-.51-2.23-1.28-1.93-.77.3-1.76,1.03-1.84,4.15-.09,3.13-.3,7.75.09,9.59.39,1.84,1.03,4.28,5.99,4.02,4.97-.26,5.91-1.67,6.04-3.08.13-1.41-1.03-3.17-2.35-4.75-1.33-1.58-2.35-2.4-2.35-2.4h0Zm7.19,5.82c-.3-.04-.56-.51-.6-1.37-.04-.86-.11-2.18.3-2.42.41-.24,2.05,0,2.76-.06.71-.06,1.61.06,1.67.81.06.75.09,2.44-.73,2.72-.81.28-3.4.32-3.4.32h0Zm5.46-2.05c.39.13,1.2.06,1.82.04.62-.02,1.63-.36,1.63-1.05s-.11-2.35-.28-2.55c-.17-.19-1.76-.24-2.35-.15-.6.09-.68.13-.68.13,0,0-.43.66-.58,1.33-.15.66.45,2.25.45,2.25h0Zm55.69-16.65c-2.87-3.68-5.31-7.75-1.16-11.73,4.15-3.98,12.03-5.69,16.74,1.84,4.71,7.53,7.49,10.96,17.12,14.85,9.63,3.9,12.5,5.18,16.52,5.35,4.02.17,8.9-.51,8.01,1.07-.9,1.58-3.85,4.02-16.14,5.48-12.29,1.46-25.6-4.24-31.51-8.22-5.91-3.98-9.59-8.65-9.59-8.65h0Zm59.38-50.13s-1.11-.51-.43-2.18l.68-1.67s.3-1.03,1.33-.73c1.03.3,4.54,3.77,7.23,8.39,2.7,4.62,5.09,7.45,6.29,10.49,1.2,3.04,1.37,4.75-.43,5.05-1.8.3-3.04.04-3.85-.47-.81-.51-.81-.73-1.46-2.74-.64-2.01-2.83-6.72-4.88-9.97-2.05-3.25-4.5-6.16-4.5-6.16h0Zm-2.27,20.95c.35-.31.73-.78,1.1-1.51.72-1.42,2.06-2.84,3.32-3.01l.23-.93c.3-1.2-.77-2.14-2.1-3.42-1.33-1.28-3.17-4.5-5.05-7.41-1.88-2.91-2.65-1.93-3.17-1.33-.51.6-2.35,1.97-3.64,2.87-1.28.9-1.71,1.54-1.46,2.53.26.98,1.63,2.7,2.74,4.15,1.11,1.46,4.67,5.69,5.65,6.76.82.89,1.5,1.25,2.37,1.29h0Zm-1.88,18.01s2.23,1.24,5.48,1.97c3.25.73,5.86,1.11,10.19-.77,4.32-1.88,5.31-6.29,5.31-6.29l.94-2.83c.94-2.83-.13-2.23-1.54-1.84-1.41.39-3,.56-4.49.17-1.5-.39-1.11.6-1.33,2.1-.21,1.5-1.71,2.44-3.77,2.4-2.05-.04-4.07-.86-6.72-2.18-2.65-1.33-3.94-3-6.12-1.37-2.18,1.63-2.14,4.75-1.8,5.35.34.6,2.78,2.78,3.85,3.3h0Zm-75.96,27.04c.42.31.92.57,1.37.42.51-.17.96-1.11.75-2.27-.21-1.16-.3-1.84-.92-1.76-.62.09-.98.17-1.24,1.31-.11.49-.15.87-.17,1.17-.01.37-.1.9.21,1.13h0Zm-65.28-31.45c.39-.73.56-1.93,3.57-1.37,3.02.56,7.13,3.62,8.33,8.41,1.2,4.79.26,7.36-.64,8.78-.9,1.41-5.74,7.92-13.96,11.94-8.22,4.02-22.86,3.9-30.01,3.17s-9.42-2.27-8.86-2.83c.56-.56,4.02-.6,8.09-2.27,4.07-1.67,15.41-6.25,20.68-10.23,5.27-3.98,7.36-5.69,9.59-9.97,2.23-4.28,3.21-5.63,3.21-5.63h0Zm23.33-31.4c1.46-2.61,2.61-4.58,3-5.69.39-1.11.47-1.28,2.53-1.11,2.05.17,1.46.9.69,2.91-.77,2.01-1.71,4.32-1.37,5.09.34.77,1.8,3.98,2.48,5.39s-.04,1.63,3.3,2.91c3.34,1.28,4.45.09,2.83,5.09-1.63,5.01-3.51,11.39-3,13.23.51,1.84,2.74,5.44,4.2,6.72,1.46,1.28,2.14,1.8,2.03,2.44-.11.64-.62,1.41-1.43,1.61-.81.19-.73-.68-1.11-1.37-.39-.68-1.13-.86-1.88-1.35-.75-.49-2.35.41-3.06.77-.71.36-1.24.83-1.41.56-.17-.28-.79-2.05-1.61-2.33-.81-.28-2.53-.19-3.45.06-.92.26-.96.3-.96.3,0,0-.64,1.07-1.33,1.61-.69.54-1.07.56-1.35-.13-.28-.68-1.56-2.61-2.27-3.23-.71-.62-1.22-.86-2.76-.28-1.54.58-1.46,1.03-2.35.68-.9-.34-.77-1.61.36-3.45,1.13-1.84,1.13-2.59,1.24-3.3.11-.71-.96-1.2.69-1.61,1.65-.41,1.84.54,4.11.19,2.27-.34,2.25-2.63,3.1-5.07.86-2.44,1.71-5.05,2.27-7.28.56-2.23,1.07-3.42-.13-4.97-1.2-1.54-3.15-3.92-3.92-4.65-.77-.73-.43-1.61-.02-2.59.41-.98.6-1.18.6-1.18h0Zm-5.95,45.74s3.42.17,4.3-.02c.88-.19.68-.58.66-2.08-.02-1.5-.45-3.7-1.31-5.35-.86-1.65-1.97-2.61-3.77-2.2-1.8.41-2.53.6-2.61,1.84-.09,1.24-.39,2.89-.21,4.9.17,2.01.32,2.12.94,2.53.62.41,1.03.34,1.99.38h0Zm7.58-.51s.36.15.98.19c.62.04,1.76.24,1.84-.66.09-.9.04-1.58.73-1.88.69-.3.79-1.05,1.35-3.42.56-2.38-.88-3.25-2.7-2.7-1.82.56-2.93,1.56-3.17,2.93-.24,1.37-.51,4.02-.32,4.79.19.77.62.66,1.28.75h0Zm9.97.54s.28.04.62-.11c.34-.15.34-.24.51-1.24.17-1.01.66-2.2.92-3.62.26-1.41.11-1.16-.47-2.25-.58-1.09-1.9-.56-3.45.06-1.54.62-2.31,2.23-2.61,4.26-.3,2.03-.17,2.68.73,2.89.9.21,2.95.04,3.75,0h0Zm3.66.3c.69.04.77.02.77.02,0,0,.62,0,1.24-.11.62-.11.28-1.56.62-1.88.34-.32.92.15,1.03-1.88.11-2.03.39-3.06-.51-3.13-.9-.06-2.2.56-3,1.28-.79.73-.98,1.46-.94,2.8.04,1.35.21,2.57.43,2.76.21.19.36.13.36.13h0Zm-46.34-18.5c-.09,2.18-.94,3.72.47,4.62,1.41.9,2.01,1.8,2.65,2.01.64.21.81-.73.64-1.54-.17-.81.98-1.63,1.76-2.78.77-1.16,2.27-3.9,3.04-3.51l.77.39s.04.09,2.27.3c2.23.21,4.02.39,4.58.68.56.3,1.07,1.75,1.58,2.7.51.94.81,1.88,1.71,1.93.9.04,1.84-.21,1.97-.86.13-.64.98-3.17,1.24-3.81.26-.64-.09-1.63-.21-2.48-.13-.86.77-3.04.77-3.04,0,0,3.04-.51,4.62-.47,1.58.04,2.14-.19,2.53-1.48.39-1.28,1.8-6.64,2.14-7.49.34-.86-1.2-1.71-2.35-2.83-1.16-1.11-2.87-2.83-3.38-3.42-.51-.6-1.84-.34-3.08-.04-1.24.3-1.63.19-2.16,1.88-.53,1.69-1.67,6.19-1.93,7.04-.26.86-1.05,1.41-1.48,1.52-.43.11-7.45-.06-8.71-.02-1.26.04-1.95-.02-2.72,1.2-.77,1.22-.81,1.28-.81,1.28,0,0-3.23,4.2-4.22,5.54-.98,1.35-1.58,1.58-1.71,2.05-.13.47.02.62.02.62h0Zm-24.97-37.19c.17-.17.64-.15,1.33.62.69.77,1.61,1.84,2.63,2.55s2.16,1.54,2.65,1.54,1.61-1.43,2.31-1.16c.71.28,3.57,1.11,4.97,1.82,1.39.71,6.64,2.42,7,2.87.36.45,1.13,2.7,1.63,3.42.49.73,1.11,1.16,4.28,1.13,3.17-.02,8.26-.09,8.6.24.34.32-1.01,1.37-1.69,2.31-.68.94-2.27.88-3.79.98-1.52.11-7.92.39-8.95.47-1.03.09-1.56,1.09-7.21-.94-5.65-2.03-11.54-6.81-12.24-7.26-.71-.45-2.08-1.95-2.16-2.46-.09-.51-.06-4.34-.04-5.07.02-.73.68-1.07.68-1.07h0Zm9.63,7.38c-.41.28-.14,1.57-.09,2.2.02.26.9.41,2.33.98,1.43.58,2.38,1.11,4.43,1.56,2.06.45,2.03.17,1.99-.6s.13-1.61-.58-1.88c-.71-.28-3.53-.9-5.18-1.46-1.65-.56-2.5-1.09-2.91-.81h0Zm-7.84-12.96c.51-.86,1.33-3.38,2.4-3.42,1.07-.04,1.76,1.54,2.7,2.48.94.94,2.91,2.35,4.49,3.38,1.58,1.03,3.9,1.97,5.14,2.48,1.24.51,1.58,1.13,1.66,1.42.07.29,1.02.26,1.36.38.34.13,6.51.81,8.93.94,2.42.13,3.79.3,4.77.21.98-.09.49-.56,1.24-.62.75-.06,4.39-.17,6.64-.66,2.25-.49,6.44-1.33,7.41-1.65.96-.32,1.63-.84,2.12.06.49.9.21,1.48.39,1.99.17.51,2.14.21,2.48.64.34.43-1.37,1.61-1.73,2.78-.36,1.18-1.39,3.17-2.01,4.05-.62.88-.64.88-.64.88,0,0-7.9,1.35-10.83,1.52-2.93.17-3.55.32-8.69.21-5.14-.11-5.12.11-5.71-.41-.6-.51-1.73-3.08-2.08-3.85-.34-.77-3.62-1.52-6.36-2.65-2.74-1.13-6.12-2.46-6.55-2.55-.43-.09-1.2.41-1.71.98-.51.58-1.63.04-2.14-.54-.51-.58-3.51-3.57-4.26-4.11-.75-.53,1-3.97,1-3.97h0Zm24.33-1.29c.17-.21.45-.24,1.33-.09.88.15,1.26-.06,1.2.9-.06.96-.13,1.52.04,1.67.17.15.15.34,1.16.47,1.01.13,1.76.15,2.74.17.98.02.98-.24,1.05-.68.06-.45.02-1.16.02-1.61s-.3-1.24.71-1.26c1.01-.02.88-.11,1.18.98.3,1.09.79,2.03,1.05,2.5.26.47.73,1.76.47,2.29-.26.54-1.39.71-3.57.73-2.18.02-2.16-.13-3.98-.17-1.82-.04-3.45.21-4.88-.21-1.43-.43-2.68-1.5-3.57-2.4-.9-.9-2.24-1.26-2.12-1.54.13-.28-.07-2.53.71-2.53s.9.17,1.03-.47c.13-.64.26-1.07,1.18-.79.92.28.79.34.62,1.71-.17,1.37.06,1.31.77,1.52.71.21,1.28.73,1.91.79.62.06.7-.15.75-.77.05-.62.23-1.22.23-1.22h0Zm-2.7-.15v-.6c0-.41.04-.43.51-.41.47.02,1.13.21,1.41.36.28.15.02.56.02.9s-.32.26-.96.19c-.64-.06-.6-.17-.98-.45h0Zm6.23,1.58c-.01-.76-.18-1.16.94-1.16.53,0,2.48-.24,2.48.47,0,.24.11,1.07-.26,1.26-.36.19-1.16.02-1.99-.04s-1.16.23-1.18-.54h0Zm-18.84-3.58s.08,1.87.48,2.06c.41.19.76.29,2.28.14,1.52-.15,1.39-.62,1.35-1.58-.04-.96.13-3-.09-3.34-.21-.34-.98-.09-2.38,0-1.39.09-1.31.11-1.56.71-.26.6-.13,1.09-.09,2.01h0Zm35.3-4.58c-.17.36.03,4.42,0,5.31-.05,1.31.21,2.35,2.23,2.35s3.4.06,3.55-.79.13-3.87,0-5.72c-.13-1.84-.81-1.46-2.83-1.5-2.01-.04-2.71-.19-2.95.34h0Zm-22.1-16.59c.79-.79,2.89-2.91,4.47-2.89,1.58.02,3.08.3,4.77.53,1.69.24,2.63.88,3.57,2.63s2.08,4.09,2.27,4.73c.19.64-.19,5.31-.41,6.44-.21,1.13-1.03,2.65-2.18,3.64-1.16.98-2.33,1.43-3.87,2.01-1.54.58-3.9.58-5.01.11-1.11-.47-3.13-1.54-4.17-2.72-1.05-1.18-2.48-3.42-2.44-5.84.04-2.42-.13-4.92.66-6.04.79-1.11.77-1.11.77-1.11l1.56-1.5h0Zm1.97,1.8c.98-1.11,1.37-1.84,2.78-1.71,1.41.13,3.68,0,4.58.6.9.6,1.93,2.31,2.53,3.13.6.81.56,2.27.43,3.72-.13,1.46-.21,3.81-.56,4.58-.34.77-2.23,2.61-3.08,2.87-.86.26-1.93.13-3.64-.09-1.71-.21-2.7-.39-3.77-1.67-1.07-1.28-1.88-2.83-1.88-5.01s-.38-2.48.47-3.98c.86-1.5,2.14-2.44,2.14-2.44h0Zm-22.71-5.39c-.04,1.96.1,5.09.59,6.53.33.98,1.63,2.55,2.76,3.67.2.54.58,1.02.94,1.36.66.62,2.33,2.14,4.99,3.9,1.58,1.04,2.8,1.69,3.53,2.05l.34-6.45c-.98-.3-2.08-.75-2.69-1.18-.96-.69-1.97-1.88-3.66-2.59-.98-.41-1.8-.3-2.33-.14-.71-.67-1.35-1.46-1.74-2.32-1.19-2.66-1.08-4.19-1.26-4.99-.6-.31-1.09-.15-1.48.17h0Zm9.49,6.33c-.58-.51-1.69-1.16-2.14-1.5-.45-.34-.39-.62-.43-1.11-.04-.49,0-1.39-.47-1.63-.47-.24-1.2-.28-1.41-.56-.21-.28-1.22-2.78-1.48-3.3-.26-.51-.45-2.29-.43-2.8.02-.51.94-1.28,1.52-.39.58.9,1.76,2.48,2.12,2.91.36.43.77.96,1.31.75.54-.21.62-.64,1.35-.32.73.32,1.78,1.37,2.12,1.82.34.45,1.78,1.93,1.91,2.23.13.3.13.32.13.32,0,0-.02,1.82-.06,2.53-.04.71-.17,1.99-.39,2.35-.21.36-.54.68-1.33.28-.79-.41-2.31-1.58-2.31-1.58h0Zm-9.88-9.19c-.3.04-.66-.3-.77-.54-.11-.24-.24-1.54-.17-2.25.06-.71,0-1.56-.19-2.55-.19-.98-.32-3.02-.11-3.3.21-.28,2.08-1.73,2.72-2.16l.64-.43s1.03-1.28,1.46-1.8c.43-.51,1.62-2.17,1.92-2.34.3-.17.58-.43.54-.59-.04-.16-1.07-.61-.24-1.62.84-1.01,1.91-1.54,2.59-1.97.69-.43,1.33-.73,1.91-.36.58.36,1.91,1.84,2.25,2.31.34.47,1.58,1.61,1.76,1.48.17-.13.47-2.01.3-2.48-.17-.47-.69-2.42-.54-2.61l.15-.19s2.2-.56,3.21,1.67c1.01,2.23,1.97,4.07,2.35,5.48.39,1.41.94,2.08,1.33,2.05.39-.02,1.71-1.26,1.71-1.65s.51-1.93.68-3.4c.17-1.48.13-2.95.64-3.13.51-.17,4.32-1.31,5.72-1.18,1.39.13,1.8,2.01,2.23,3.08.43,1.07,1.91,4.77,2.29,5.78.38,1.01.19,2.44.15,3.6-.04,1.16-.15,3.12-.28,3.94-.13.81-.17,1.46-1.84.96-1.67-.49-6.1-.83-8.56-1.24-2.46-.41-7.47-1.37-9.74-1.71-2.27-.34-3.85-.64-5.27-.17-1.41.47-6.49,2.61-7.09,3.15-.6.54-.94,1.48-1.16,2.57-.21,1.09-.15,1.33-.3,1.43-.15.11-.29.16-.29.16h0Zm107.42,114.43s1.33.81,3.75.68c2.42-.13,3.08-1.39,3.68-3.51.6-2.12.73-7.3.6-9.16-.13-1.86-.11-3.96-.49-4.5-.39-.53-2.01-.36-2.44-.02-.43.34-1.16,2.1-2.1,3.85-.94,1.76-3.21,4.65-4.32,6.1-1.11,1.46-1.99,2.29-1.78,3.94.21,1.65,1.73,2.03,3.1,2.61h0Zm-8.97-4.09c-.62-.26-.84-.21-.77-1.09.06-.88-.16-1.76.22-2.27.38-.51,1.17.02,2.13.39.96.36,1.87.08,2,1.21.13,1.13-.09,1.59-.17,2.13-.09.53-1.22.53-1.86.18-.64-.35-1.55-.55-1.55-.55h0Zm66.79-33.81c.07-.19.11-.43.12-.71.13-3.25,2.27-4.79,4.32-5.48.45-.15.76-.33.96-.51-.37-1.12-.95-2.29-1.86-3.41-1.95-2.4-6.36-6.83-8.33-9.61-1.14-1.61-1.85-2.84-2.45-3.74-.12.02-.24.03-.36.06-1.2.26-4.11,1.41-5.18,2.31-1.07.9-.17,1.03-1.16,3.13-.98,2.1-2.23,3.55-1.54,5.14.03.08.07.16.11.24,1,.92,2.56,2.42,4.88,4.77,2.53,2.57,5.95,6.12,5.95,6.12,0,0,2.57,1.47,4.52,1.7h0Zm10.54-11.72s4.02,3.21,7.66,4.79c3.64,1.58,9.68,2.57,13.4-4.24,3.72-6.81.13-14.9-2.61-19.69-2.74-4.79-11.13-14.25-12.63-15.58-1.5-1.33-2.48,1.37-3,3.13-.51,1.76-.09,2.1,2.53,4.45,2.61,2.35,5.82,5.31,9.89,13.01,4.07,7.71,3.34,11.64-.36,13.66-3.7,2.01-7.88-1.8-9.8-2.95-1.93-1.16-2.7-.56-4.2.64-1.5,1.2-1.16,2.5-.88,2.78Z"/><path id="Skin" class="cls-1" d="m18.43,159.65c.1,2.69-.9,4.61.91,7.05-2.37-1.5-2.83-4.2-2.98-6.56-.17-2.74.08-3.67-1.5-6.09-1.06-1.63-2.43-3.08-2.85-3.57,3.52,1.5,6.28,5.31,6.42,9.17h0Zm47.24-.21c.32-.11.75-.15,1.01-.24.26-.09.11-.39.71-.39s1.2-.11,1.52.11c.32.21.11.36.73.62.62.26,1.2,1.05,1.48,1.99.28.94-.06,3.3-.49,4.28-.43.98-1.31,1.41-2.55,1.39-1.24-.02-2.33-.6-2.8-.94-.47-.34-1.09-1.39-.75-3.94.34-2.55,1.16-2.89,1.16-2.89h0Zm.47,4.82s0,.04.26.3.86.41,1.61.39c.75-.02.9-.24,1.22-.64.32-.41.13-1.03.06-1.71-.06-.69-.34-1.35-.73-1.58-.39-.24-1.46-.06-1.8.06-.34.13-.64.47-.71.86-.06.38-.09,2.16.09,2.33h0Zm43.24,60s-.21-.45-.34-.96c-.13-.51.45-1.39.68-1.88.24-.49.45-1.09.66-1.39.21-.3.49-.81.88-.79.39.02.96.02.98.28.02.26.02,1.58-.09,1.88-.11.3-.36.3-.83.71-.47.41-.69.62-1.13,1.39-.45.77-.81.77-.81.77h0Zm52.76-60.95c.34.34.15,1.09.16,1.67.01.58.62,2.06,1.24,2.06s1.82.49,2.72-.32,1.41-.94,1.76-1.99c.34-1.05.79-1.37,1.07-1.93.28-.56.21-1.16.79-1.28.58-.13.94-.41,1.03,1.03.03.56.24,1.28.09,1.92-.23.98-.95,1.88-1.69,2.64-1.22,1.26-1.88,2.12-3.96,2.25-2.08.13-2.53.51-3.66-.39-1.22-.97-1.34-3.73-.94-5.14.02-.08,1-.91,1.4-.51h0Zm5.12-1.37s.15.41.66.49c.51.09.98-.34,1.5-1.11.51-.77.51-1.95-.19-2.42-.71-.47-1.01-.19-1.82.34-.81.54-.51.98-.64,1.5-.13.51.24.92.49,1.2h0Zm57.93-25.36c-.72,1.83-1.34,4.23-1.74,7.37-1.43,11.2,1.48,20.32-7.46,33.45,1.25-4.32,1.17-8.33,1.12-11.1-.09-4.79-1.54-11.64.17-18.58,1.09-4.4,5.11-8.64,7.9-11.14h0Zm-42.14,97.62c.21-.15.62.02.83.98.21.96,1.16,3.08,1.52,4.24.36,1.16,1.16,2.76.92,2.85s-.96-.17-1.41-.6c-.45-.43-1.41-1.46-1.76-1.93-.34-.47-.68-.9-.73-1.35-.04-.45.36-2.53.36-3.25s.26-.94.26-.94h0Zm-97.17,50.34c-.83-.68-1.54-1.73-2.29-2.16-.75-.43-.79-1.43,1.11-2.23,1.91-.79,5.8-2.42,7.32-3.06,1.52-.64,4.26-1.65,5.03-2.08.77-.43,2.48-.88,2.87-.64.39.24.71.86-.58,1.97-1.28,1.11-2.35,2.18-2.61,3.17-.26.98.56,1.18-1.09,2.95-1.65,1.78-3.32,3.36-4.3,4.43-.98,1.07-.88,1.09-1.95.62-1.07-.47-3.51-2.98-3.51-2.98h0Zm27.65,14.17c1.03-.15,2.42-.13,2.65-.81.24-.68.64-2.89.64-3.62s.68-1.93.86-1.35c.17.58.15.41.3,2.38.15,1.97.04,3.1.43,3.34.39.24,1.97.21,3.9.3,1.93.09,5.29.26,8.84-1.33,3.55-1.58,6.12-3.3,7.53-4.32,1.41-1.03,2.14-1.97,1.88-2.78-.26-.81-4.37-7.28-6.64-11.26-2.27-3.98-4.02-5.01-7.75-5.22-3.72-.21-4.75.43-6.21,1.67-1.46,1.24-1.97,2.01-2.31,1.93-.34-.09-1.41-1.97-2.87-2.78-1.46-.81-4.02-.86-6.42-.09-2.4.77-5.09,3.47-7.06,5.35-1.97,1.88-4.97,5.27-6.51,6.72-1.54,1.46-2.48,2.18-1.76,3.42.73,1.24,3.81,3.98,6.16,5.74,2.35,1.76,7.96,2.83,10.79,2.91,2.83.09,3.53-.19,3.53-.19h0Zm27.93-11.75c-.54-.94-2.16-3.53-2.5-3.85-.34-.32-.17-.71-.3-1.43-.13-.73-.56-1.41-1.2-2.46-.64-1.05-1.39-2.53-1.88-2.98-.49-.45-.81-1.48.36-1.46,1.18.02,3.38.41,6.08,1.52,2.7,1.11,5.61,1.93,7.38,2.72,1.78.79,3.36.92,3.17,1.52-.19.6-.66,1.33-2.08,2.42-1.41,1.09-3.49,2.91-4.56,3.83-1.07.92-1.54,1.58-2.33,1.84-.79.26-2.14-1.67-2.14-1.67h0Zm39.27-47.95c-.11.58-.32,1.61-.6,1.63-.28.02-2.03-1.78-2.44-2.46-.41-.68-1.24-1.63-1.95-2.48-.71-.86-.36-.47-.24-1.69.13-1.22-.38-5.31-3.7-7.73-3.32-2.42-9.89-2.68-12.48-1.67-2.59,1.01-11.09,7.32-14,10.19-2.91,2.87-5.86,6.04-13.4,5.91-7.53-.13-9.93-.56-10.62-.73-.68-.17-1.41-4.88-2.05-5.86-.64-.98-.64-2.05.94-2.1s12.84,1.5,14.81.9c1.97-.6,8.52-3.85,14.17-8.69,5.65-4.84,8.01-6.21,10.19-6.76,1.35-.35,2.18-.54,2.61-.53.58.02-.71.71-.83.79-.96.68-.76.6.26.43.49-.08,1.16-.2,1.96-.33,1.63-.26,7.62-.92,11.82,3.04,4.2,3.96,4.43,7.51,4.77,10.85.34,3.34.77,7.3.77,7.3h0Zm-85.18-72.5c.34.19.73.32.79.96.06.64-.09,1.95-.09,2.78s.02,1.26.13,1.71c.11.45-.04.36-.45,1.09-.41.73-.51.77-.81.73-.3-.04-.51.43-.45-1.07.06-1.5-.11-1.52-.09-2.38.02-.86-.09-1.5-.13-2.55-.04-1.05.26-1.01.58-1.2.32-.19.51-.09.51-.09h0Zm8.73,21.62c.17-.13,1.01.09,1.78-.47.77-.56,1.26-.96,1.91-.73.64.24.09,1.18-.34,2.42-.43,1.24.32.94-1.56,2.7-1.88,1.76-1.05,2.48-1.82,3.3-.77.81-1.09-.04-1.35-.39-.26-.34.41-1.86.49-2.85.09-.98.77-.45.88-2.03.11-1.58.02-1.95.02-1.95h0Zm6.36,15.88c-.19.04-.54.09-.71-.73-.17-.81.06-2.2.3-3.36.24-1.16.34-3.06.58-4.26.24-1.2.71-.88,1.31-1.61.6-.73,1.11-2.03,1.63-1.65.51.38.51,2.14.94,2.98.43.83-.34,3.08-.45,4.07-.11.98-1.31.71-2.1,1.61-.79.9-.79,1.33-.98,2.18-.19.86-.51.77-.51.77h0Zm-90.82-.89c-.04-.51-.26-1.07,1.33-.6,1.58.47,2.7.94,4.54.77,1.84-.17,1.88.26,2.27,2.48.39,2.23.51,5.57.77,7.11.26,1.54-.04,2.35-.13,3.81-.09,1.46-.34.09-.9-.98-.56-1.07-1.33-3.08-2.78-4.79-1.46-1.71-1.93-1.97-3.47-4.07-1.54-2.1-1.63-3.72-1.63-3.72h0Zm-10.23-18.28s2.65,4.11,4.84,6.46c2.18,2.35,3.3,5.78,4.37,6.38,1.07.6.68.04.39-1.37-.3-1.41.04-3.08-.3-4.11-.34-1.03-2.95-2.48-4.92-4.07-1.97-1.58-4.37-3.3-4.37-3.3h0Zm27.7,10.53s.39,2.78.73,3.94c.34,1.16-.6,2.53,1.28,5.57,1.88,3.04,2.23,5.74,2.61,6.16.39.43,1.11-.56,1.11-2.31s-.04-4.92-1.33-7.19c-1.28-2.27-1.88-1.97-2.91-4.02-1.03-2.05-1.5-2.14-1.5-2.14h0Zm9.92,33.5c-.25.48-.49,1.32-.49,2.59,0,2.18.13,3.02,1.31,2.59,1.18-.43.98-1.58.9-2.29-.09-.71-.62-.9-.9-1.99-.3-1.16-.23-2.02-.81-.89h0Zm11.47,33.7s.28.68.9,2.37c.62,1.69,2.76,5.29,3.68,6.61.92,1.33,8.2,7.62,15.65,7.21,7.45-.41,15.07-4.82,17.85-6.01,2.78-1.2,1.31-1.31,1.99-1.69.69-.39,8.5-3.13,12.99-4.41s9.33-1.16,12.37-.47c3.04.68,12.16,5.65,13.74,6.29,1.58.64,6.38,2.74,9.29,3.98,2.91,1.24,4.67,1.97,7.23,2.14,2.57.17,4.58-.79,5.65-1.11,1.07-.32.81.54,1.37.73.56.19.81.6,1.93-.13,1.11-.73,3.08-1.76,6.12-4.41,3.04-2.65,6.72-9.74,7.32-11.77.6-2.03-.28-1.93-2.18-2.65-1.9-.73-3.12-1.61-4.41-1.9-1.28-.3-1.07,1.56-1.48,3.32-.41,1.75-2.01,3.53-2.03,4.39-.02.86-.56,1.61-.94,1.65-.39.04-.34-.71-1.35-.66-1.01.04-1.2.24-1.69.66-.49.43-2.35,1.8-3.04,2.14-.68.34-4.5.56-5.52.39-1.03-.17-8.35-3.38-12.71-6.04-4.37-2.65-10.32-5.35-15.15-5.65-4.84-.3-14.81.04-18.84,1.5-4.02,1.46-14.36,6.96-17.79,8.5-3.42,1.54-6.55,2.57-8.33,2.57s-3.21-.36-4.26-1.11c-1.05-.75-3.04-1.5-3.55-1.78-.51-.28-.96.53-1.39.53s-1.9-.94-2.46-1.71c-.56-.77-1.63-2.5-1.99-3.81-.36-1.31-1.18-3.98-1.33-4.15-.15-.17-1.5.68-2.48,1.01-.98.32-3,1.01-4.71,1.35-1.71.34-2.44.17-2.85.56-.41.39-.73,1.05.11,1.13.83.09,2.16.21,2.29.45h0Zm-26.39-119.1c-.27,2.04-.69,4.8-1.29,7.19-.64,2.56-1.62,6.8-1.39,10.57-1.16-2.21-.02-7.25.36-9.33.51-2.78.94-3.13-.94-12.12-1.09-5.2-3.38-8.25-5.12-9.9-.22.09-.31.37-.32.69.09.15.18.3.26.45.86,1.58,1.33,2.87,1.67,5.61.34,2.74.34,8.43-.56,12.5-.85,3.84-2.76,9.42-1.78,13.3.24.95.56,2.3.11,2.63-.47.35-.88.37-1.19-.58-.57-1.72-.25-3.67-.64-5.51-.31-1.49-1.05-2.73-1.53-3.05.39.2.65,4.74-.09,7.04-.63,1.98.01,3.28.55,4.65.77,1.97.16,3.42-1.65,1.07-1.06-1.38-2.71-1.77-2.71-1.77,0,0,.21.13.83.98.62.86.94,2.03,1.03,3.19.07.94.03,2.21.88,4.31.34.83,1.25,2.24,1.25,3.01,0,.43-.12.64-.64.3-.7-.46-1.45-1.41-2.36-2.16,1.36,5,6.62,12.26,10.71,15.43,4.36,3.39,5.7,3.4,7.69,9.07.13-1.62-.21-4.16-2.33-7.57-2.21-3.55-3.42-6.43-3.58-8.54,1.25,1.66,3.16,3.27,3.16,3.27,0,0-.13-.17-.3-2.05-.17-1.88.3-6.93,1.41-10.49.73-2.32,1.62-4.18,2.15-5.2.97.82,1.91,1.66,2.83,2.41.27-.12.55-.26.86-.42-.48-.9-1.09-2.01-1.85-3.3-2.23-3.77-2.4-8.39-2.91-16.01-.28-4.2-1.52-7.53-2.57-9.67h0ZM.51,131.59c.95,4.17.83,8.25,4.28,11.24.65.57,1.17,1.57,1.55,2.56-1.83-1.44-5.03-2.26-6.05-4.95-.68-1.78.02-6.82.22-8.85h0Zm7.06-40.44c-.07,5.36-.19,10.26,3.68,15.83,3.87,5.57,6.58,13.42,5.48,18.11-1.55-5.62-5.91-8.89-8.82-15.97-2.9-7.08-1.39-12.55-.34-17.97h0Zm30,15.03c-.77-3.02-1.27-8.12-.26-11.16,1.15,8.13,6.24,11.75,9.09,16.94,2.42,4.4,4.62,12.36,6.58,17.42,0,0-2.83-4.11-5.99-8.82-.88-1.31-1.87-2.49-2.88-3.64-.22.28-.28.88-.08,1.59.73,2.74,1.3,3.53.97,6.72-.1.99-.09,1.71-.09,1.71-.45-1.07-1.4-1.57-2.48-1.76-.51,2.58-1.72,4.87-2.7,7.29,0,0-.39-2.53-1.33-4.84-.54-1.32-1.74-2.76-2.68-3.76.65,2.21.64,3.77.2,5.94-.01-1.16-.46-2.02-.98-3.04-1.28-2.48-4.88-3.47-5.05-9.5-.17-6.04-1.03-10.7-2.18-15.84-1.16-5.14-6.04-7.62-6.04-7.62,7.12,2.27,8.73,7.39,11.82,13.74,1.37,2.82,2.96,4.74,4.25,5.99.87.84,3.21,2.65,2.63.06-.58-2.56-2.1-4.76-2.78-7.43h0Zm-8.96-70c.04-.58.06-1.16.09-1.77.12-3.33-.91-6.21-2.07-8.36l.36-.61c.42.47.77,1,1.03,1.61,6.94,16.44,2.48,16.01,3.43,29.28.68,9.63,3.03,15.79,4.27,18.44-2.48-2.6-5.71-6.9-7.96-13.3-2.3-6.58-3.13-12.75-1.52-18.44.47-1.66,1.55-3.04,1.98-4.88.02.96-.72,2.95-.83,4.29-.17,1.96.28,3.9.28,3.9.2-1.4.37-2.73.62-4.13.17-.94.32-1.92.33-3.02.01-.97,0-2.09-.02-3h0Zm25.11,76.59c1.5,7.48,6.4,13.8,8.28,20.89.72-15.56,2.83-26.74-8-39.8-4.32-5.22-11.14-7.35-11.72-15.06-1.67,4.71.19,9.16,2.74,13.32,6.15,10,6.26,8.47,8.7,20.66h0Zm28.26-28.08c.28,1.11.77,2.29,1.57,3.48,2.58,3.83,5.03,8.95,3.41,12.1.7-3.01-2.49-5.71-4.03-8.99-1-2.13-1.14-4.5-.95-6.59h0Zm-18.41-13.78c1.11,2.43,2.62,4.94,4.65,7.02,2.84,2.92,4.92,7.13,4.97,11.93-2.94-4.26-5.57-3.75-7.8-8.16-1.72-3.41-2.01-7.43-1.82-10.78h0Zm36.95-39.47c1.03,4.22,1,6.64-1.91,11.21-2.91,4.57-1.72,8.79.81,13.32-3.83-2.54-5.42-9.64-3.07-15.2,1.72-4.07,3.35-4.11,4.17-9.34h0Zm90.65,27.02c2.21-5.73,5.33-6.48,9.17-10.85,7-7.94,5.17-19.09-.37-27.01,1.27,6.12,1.69,13.4-4.1,20.53-5.8,7.13-5.13,14.75-4.7,17.33h0Zm29.61-5.97c.06.31.15.54.28.57.21.04,1.62-3.78,2.99-7.89,2.36-7.1,5.42-6.99,9.2-11.85,1.33-1.71,2.25-3.7,2.61-6.53.76-6.07.04-11.67-3.6-16.61.87,3.46,1.47,8.97-1.56,13.69-4.07,6.33-8.5,7.28-9.65,14.09-.48,2.82-.69,12.23-.26,14.53h0Zm29.82,25.95c1.23-3.81,3.44-8.1,7.22-12.64,2.89-3.46,3-8.23,1.51-13.08-.92,3.66-2.68,7.29-4.54,9.65-4.52,5.74-4.43,13.19-4.2,16.06h0Zm-19.85,43.96c3.67-2.23,8.57-7.02,9.51-16.95,1.42-14.98-7.84-21.83,1.4-36.74-1.25,1.2-7.76,7.89-8.8,17.95-1.16,11.13,4.15,11.43,2.83,23.72-.58,5.4-2.41,9.4-4.93,12.03h0Zm-14.56-56.37c-.74,2.15-1.68,4.97-2.24,6.97-1.03,3.68,2.23,7.45-2.23,13.44-4.45,5.99-5.39,3.77-6.34,14.38-.94,10.62-3,7.53-4.62,12.76-1.63,5.22,1.37,4.97,1.88,11.05.51,6.08.17,8.22,1.2,15.07,1.03,6.85,3.77,9.33,3.77,9.33,0,0-1.97-3.85.26-15.41,2.23-11.56-1.8-12.41-2.23-18.84-.43-6.42,1.46-9.59,7.19-13.96,5.74-4.37,7.15-10.1,6.12-18.92-.97-8.35-3.9-4.54-2.25-15.89-.17-.01-.35,0-.52.01h0Zm-7.25-9.03c5.17,12.56-4.99,18.45-3.57,27.32-2.54-6.03-1.38-12.19,1.29-17.57,1.24-2.49,2.03-5.48,2.28-9.75h0Zm-25.81-4.91c-3.47,2.42-7.25,6-8.1,10.48-.05.28-.1.56-.15.83-6.84-1.58-7.56-6.72-7.83-8.31-.39-2.27,2.23-13.4.68-17.94-.82-2.42-1.51-2.94-1.97-2.9.17,1,.67,3.04.34,6.97-.6,7.19-3.85,8.43-5.69,8.13-1.84-.3-4.41-4.71-4.41-6.76s-.09-7.23,6.68-15.03c4.78-5.51,10.34-6.82,13.36-11.06,2.41-3.38,2.69-8.95,1.9-12.94-.33-1.65-.85-2.78-1.41-3.55,1.52,3.88.22,7.52-3.79,11.33-5.48,5.22-11.56,3.6-21.49,13.61-9.93,10.02-9.03,21.66-9.29,30.05-.26,8.39-2.74,11.3-5.74,13.36-2.18,1.49-3.74,1.25-5.03.49-2.13-1.25-1.65-3-1.63-5.16.04-4.2-2.65-3.47-4.02-7.15-1.37-3.68.77-7.28,2.87-9.29.61-.58,1.17-1.31,1.71-2.01-2.2.79-5.69,2.42-7.44,5.6-2.61,4.75.13,9.03.51,11.99.39,2.95-.6,4.79-2.87,7.41-1.26,1.45-3.47,2.5-5.12,3.32-.36-1.18-.55-3.04-1.92-5.03-1.2-1.74-2.96-2.63-4.51-3.09,1.02.82,2.26,2.44,2.8,5.55.98,5.74-.13,6.83-1.48,11.09-1.35,4.26-1.28,4.07-1.2,10.15.09,6.08-3.1,9.23-5.09,9.63-1.96.4-2.51-.36-2.77-.61.27-.5.6-1.07,1.02-1.65,1.33-1.84,2.4-5.82,2.23-9.93-.17-4.11-2.48-6.81-2.48-6.81,0,0,1.16,4.92-.09,8.56-1.24,3.64-2.1,2.23-2.4,4.11-.05.34-.13.69-.23,1.03-.36.28-.82.53-1.05.3-.43-.43-1.11-1.67.3-4.88,1.41-3.21,1.07-7.45.77-13.06-.3-5.61-5.01-12.89-7.36-16.48-2.35-3.6-4.92-5.74-3.42-13.74,1.5-8.01,4.24-11.39,4.24-11.39,0,0-5.18,5.74-6.46,9.63-1.28,3.9-3,11.35-2.14,18.54.86,7.19,2.18,8.82,5.27,13.23,3.08,4.41,4.02,6.21,2.65,10.36-1.37,4.15-4.11,11.82-3.17,22.77.45,5.24,2.7,8.55,5.09,11.28,1.72,1.97,3.01,3.35,4.3,5.74-6.93-5.16-12.97-12.68-14.49-21.39-1.03-5.91-.34-9.85-.34-9.85,0,0-3.77,4.45-5.31,11.82-.47,2.24-.76,4.24-.93,6-.73-.15-1.71-3.32-2.07-3.83-.11,5.23,1.32,5.39,1.74,9.52-2.16-6-7.68-19.1-7.55-24.88-.06.11-.77,5.91.86,13.44,1.63,7.53,2.57,11.39,3.94,16.78,1.61,6.33,4.06,10.08,2.65,17.12-.4,1.99-.59,2.87.26,4.28,1.24,2.04,3.32,6.15,4.88,7.7.34,0,1.54-.04,1.88-.13.34-.09.34-2.83.39-4.37.04-1.54-.73-2.95-.77-6.04-.03-2.18,1.01-9.48,2.3-12.1.07,3.22-.52,6.75-.17,9.89.26,2.27,1.58,5.99,2.1,10.02.45,3.51.34,6.4,0,7.97.18,1.14,1.75,2.03,2.57,2.78.73.66,1.01,1.11,1.67.94,1.25-.32.08-1.94,3.63-1.2,1.23-.12,2.55-.65,3.74-1.73,2.79-2.53,4.14-4.61,5.54-8.06.58-1.43.31-2.89,1.22-3.46.23,1.33.07,2.91-.3,4.46-.82,3.46-2.76,5.84-5.18,8.36-2.22,2.31-2.08,2.04,1.73,4.49.83.53,1.76.88,2.88.78,2.31-.21,4.37-2.65,5.99-4.92,1.56-2.18,2.61-5.22,2.09-9.74,4.17,9.22.61,11.23-.99,13.28-1.67,2.14-4.3,2.83-4.88,3.38-.58.56-.6.73-3.32.71-2.72-.02-3.17-.41-3.98-1.5-.81-1.09-.75-.92-1.58-.77-.83.15-.41,1.61-.56,2.44-.15.83.47,2.23-.75,2.91-1.22.69-.99.9-1.95,2.08-.96,1.18-1.24,1.46-1.26,2.42-.02.96-.48,2.24-1.06,3.22-.58.98.74.28,1.33.35.59.07.41-.55,1.35-1.66.94-1.11,2.27-.77,3.77-2.31,1.5-1.54,3.12-2.93,3.51-3.34.39-.41,1.86-.86,1.99.43.13,1.28-.51.6-1.13,1.46-.62.86-1.78,2.72-2.55,4.07-.77,1.35.04,1.46,1.03,2.06.98.6,1.76.71,2.16.73.41.02,1.65-.94,2.18-1.95.54-1.01.81-.24,1.37-.04.56.19,1.39.47,2.46,1.71,1.07,1.24,1.73,1.35,1.43,2.16-.3.81-1.11,1.43-1.2,2.14-.09.71-.13,2.05.39,2.12.51.06,1.61.19,2.48-.13.88-.32.26-.56,1.09-1.01.83-.45.71-.19,1.05.32.34.51.77.73,1.07,1.28.3.56.3,2.61.47,4.02.17,1.41,0,3.42-.04,5.99-.04,2.57.09,3.08-.77,4.75-.86,1.67-1.5,2.23-2.57,3.3-1.07,1.07-1.41,2.53-2.18,3.55-.77,1.03-.21,2.05.34,2.61.56.56,1.16,1.88,1.71,2.01.56.13,1.28-.56,2.4-1.54,1.11-.98,3.47-2.35,4.67-3.38,1.2-1.03,1.84-1.8,2.78-1.93.94-.13,1.41.04.56,1.16-.86,1.11-2.78,3.38-3.6,4.15-.81.77-2.27,2.14-3.72,3.6-1.46,1.46-1.63,1.8-1.58,3.25.04,1.46.04,2.27-.69,3.21-.73.94-1.28,1.46-2.74,1.8-1.46.34-1.37.69-.26.94,1.11.26.98-.26,2.61-.81,1.63-.56,1.63-.17,4.11.81,2.48.98,7.88,1.46,11-.94,3.13-2.4,2.53-6.38,2.53-8.52s0-2.83,1.28-4.11c1.28-1.28,4.02-3.04,6.34-4.37,2.31-1.33,2.35-1.16,3.98-1.07,1.63.09,2.18,2.14,2.35,3.21.17,1.07.3,1.71-1.46,4.37-1.76,2.65-3.81,4.05-5.03,4.82-1.22.77-1.28.98-1.31,1.76-.02.77-.43,1.61.86,1.78,1.28.17,1.11-.41,3.42-1.48,2.31-1.07,4.24-1.97,6.59-4.97,2.35-3,3.55-4.58,1.97-10.1-1.58-5.52-5.76-7.56-9.4-10.08-3.64-2.53-3.3-4.62-5.99-6.89-2.7-2.27-4.02-1.71-5.99-1.97-.07,0-.14-.02-.21-.03-.31-.32-.78-.91-.19-1.03.81-.17,2.05-.39,2.76-.34.71.04,1.13-.02,1.13-.02,0,0-2.18-2.8-3.08-3.62-.9-.81-2.89-1.58-3.87-1.88-.36-.11-.59-.17-.78-.2.17-.21.39-.4.63-.58.9-.64,1.71-.98,4.84.73,3.13,1.71,4.58,4.32,8.01,7.28,3.42,2.95,7.06,4.97,11.64,9.59,4.58,4.62,7.75,8.9,9.33,9.89,1.58.98,4.15,2.74,9.76,4.54,5.61,1.8,9.01,5.33,10.34,7.02,1.33,1.69,2.95,5.89,3,8.16.04,2.27.13,2.03.66,1.97.54-.06.73-2.01,1.16-4.07.43-2.05.73-3.72,1.33-6.34.6-2.61,1.8-6.42,2.91-10.1,1.11-3.68,1.61-5.74,2.59-6.53.98-.79,5.95-3.87,11.13-7.17,5.18-3.3,6.04-5.95,8.6-9.97,2.57-4.02,2.78-8.86,3.3-13.53.51-4.67.81-8.95.64-9.72-.17-.77-.69-1.88-.69-1.88,0,0-.21.9-1.07,3.72-.47,1.54-1.57,2.68-2.47,3.41v-.02c-.11-.24-.02-.91.15-1.69,2.15-3.56,2.88-6.06,3.05-13.13.26-10.1,3.73-13.91,5.78-17.68,2.05-3.77,5.74-8.26,5.78-14.47.04-6.21-2.74-7.06-4.2-11.99-1.46-4.92.77-11.69.77-11.69,0,0-.26-.04-1.11,1.33-.86,1.37-2.95,5.95-3.77,10.19-.81,4.24-.56,8.05,0,10.45.32,1.38.21,2.26.07,2.74-1.29-.68-2.17-2.38-3.19-3.86-1.46-2.1-2.1-5.61-2.1-5.61,0,0-.51.9-.73,3-.21,2.1-.9,3.94.34,7.66,1.24,3.72,3,5.31,3.08,6.21.09.9-2.14,6.76-3.3,9.72-1.16,2.95-1.33,6.55-1.67,9.2-.34,2.65-.81,4.54-1.24,7.96-.07.59-.13,1.13-.18,1.6h0c-.21-.04-.37-.2-.41-.58-.13-1.28-.26-2.87-.26-2.87l-.6-.69s-.58,1.9-1.08,2.66c-.02-.98-.09-2.29-.25-3.99-.15-1.57-.5-2.92-.89-4.01-1.16-4.43-2.82-5.5-3.7-16.14-.69-8.36-2.03-12.68-5.7-15.47.26-.6.72-.83,1.51-.17,2.35,1.97,2.91,4.07,2.91,4.07,0,0-.68-7.62-2.53-11.86-1.84-4.24-2.01-7.23-1.58-9.67.43-2.44,2.14-5.42,3.21-8.88,1.07-3.47.6-8.09-.98-11.3-1.58-3.21-3.34-5.52-1.75-9.38,1.58-3.85,4.32-6.16,5.35-6.55,1.03-.39,1.28-.9,1.28-.9,0,0-1.67-.3-3.34.51-1.67.81-5.95,5.31-8.73,11.6-2.78,6.29-3.68,10.1-9.29,14.13-5.61,4.02-8.18,3.98-9.5,3.17-1.33-.81-3.21-3.04-2.14-6.08,1.07-3.04.81-4.62.39-7.11-.43-2.48-1.88-2.63-1.88-2.63,0,0,1.5,1.97-.86,5.74-2.35,3.77-2.7,2.23-4.41,6.51-.63,1.58-1,2.8-1.08,3.77-1.06-2.15-.49-5.79.31-7.7,1.26-3.03,2.41-7.28,3.98-9.94.79-1.34,1.7-2.25,3.03-3.42,1.69-1.49,3.64-2.72,5.27-3.48-.44,4.85-.47,9.65-1.67,13.49,3.72-4.69,6.69-9.28,8.04-14.76,1.18-4.8.1-9.72,2.39-14.22h0Zm-51.71,122.8c.1-.03.2-.05.3-.07.33,0,.69.11,1.36.63.83.64,2.83,2.1,3.6,2.57.77.47,3,2.05,5.27,3.68,2.27,1.63,5.99,4.07,8.52,5.5,2.53,1.43,5.63,3.17,7.86,3.72,2.23.56,2.18.64,5.09,2.1,2.91,1.46,3.17,1.46,6.85,1.76,3.68.3,3.34.47,6.51-.39s4.71-.77,6.51-.6c1.8.17,8.6-2.16,8.95-2.59.34-.43.21-1.43.81-1.99.6-.56,1.63-1.05,3.83-2.1,2.2-1.05,5.93-4.09,6.53-4.92s1.31-1.37,1.31-1.16.17,2.76-1.41,4.62c-1.58,1.86-4.73,4.5-6.49,5.44-1.76.94-.09,1.58-1.11,2.61-1.03,1.03-4.49,2.7-7.32,4.11-2.83,1.41-4.97,1.8-6.46,1.67-1.5-.13-1.54.3-1.8.86-.26.56,1.11,1.84-1.03,1.93-2.14.09-9.93-.94-11.3-1.33-1.37-.39-4.58-2.44-8.82-5.27-4.24-2.83-11.39-7.92-16.61-11.99-5.22-4.07-4.79-3.81-5.56-3.64-.77.17-1.24-.21-2.87-2.91-.52-.87-1.46-1.62-2.5-2.25h0Zm27.98-78.59c-.24.58-.94.25-1.11.15-.82-.52-.57-2.3-.62-2.67-.05-.38-.11-.83-.16-1.37-.21-2.1-.17-2.53-.17-2.53,0,0,1.28,1.2,1.5,2.35.21,1.16.34,1.41.64,2.1.3.69.3,1.03-.09,1.97h0Zm25.42,15.06s.94,5.44,1.16,7.56c.04.36.04.68.02.96-.5.72-.59.59-.94.52-.53-.11-.39-1.61-1.97-2.8-1.58-1.2-3.57-.88-5.18.09-.76.46-1.41,1.2-1.88,1.85-.11-.06-.19-.1-.24-.12-.45-.17-.43-1.13-.51-2.12-.09-.98.13-2.33,1.78-4.43,1.65-2.1,3.23-4.86,3.96-6.98.73-2.12.49-4.11.71-4.28.21-.17.77.6,1.2,1.86.43,1.26,1.78,5.91,1.9,7.9h0Zm-90.28,33.32c-.53,2.51-1.32,3.82-1.22,6.31.02.57.25,1,.2,1.27-.18.91-1.74-1.48-1.69-3.16.07-2.7.92-5.86,1.33-8.75.35-2.47-.06-4.74-.72-6.61.41.37.85.84,1.32,1.43,2.64,3.29,1.61,5.57.78,9.51h0Zm24.73-14.42c-.81-2-2-2.81-3.15-4.65-1.71-2.74-2.4-2.27-2.4-2.27,0,0,.88,2.54.43,6.12-.45,3.58-.79,6.25-.56,8.65.07.74.01,1.63-.1,2.5-2.13-2.22-.95-3.34-2.25-6.65-1.55-3.93-7.42-5.19-8.39-9.55-.97-4.36.04-9.85.04-9.85,0,0,1.93,4.15,5.86,7.11,3.94,2.95,3.68,5.65,3.68,5.65,0,0,.3-1.8.13-4.32-.17-2.53-1.11-7.41-1.11-7.41,0,0,3.17,2.91,5.95,8.73,1.07,2.24,1.61,4.28,1.87,5.94h0Zm2.04-.22s-.11-2.83.24-5.31c.76-5.51,0-7.53,4.77-11.23,3.04-2.35,4.28-3.42,6.64-5.14,2.35-1.71,4.62-4.92,4.79-7.02.17-2.1-.26-3.64.09-3.68.34-.04,1.24,2.23,1.11,3.81-.08.94-.44,3.89-.75,6.49-.55,4.61-.45,6.44.41,11.24,0,0,1.16-6.29,4.84-9.29l3.68-3s2.28-1.72,2.53-1.94c.25-.21.33-.43.33-.43,0,0,.2.4.31.94.11.54.26,1.03.26,1.03,0,0,1.05-1.35,3.81-3,2.76-1.65,4.47-3,5.59-4.37,1.11-1.37,1.46-2.83,1.46-2.83,0,0-1.41,8.78-2.35,13.78-.94,5.01-.73,9.97-5.56,18.11-2.18,3.67-3.3,6.69-3.68,8.74.11.45.33.7.79.38,1.2-.86,2.48-3.34,3.72-4.71,1.24-1.37,3.25-3.64,4.11-4.67l.86-1.03s1.67-2.44,2.18-2.65c.5-.21-.45,1.56.39,1.74,1.56-.91,3.99-2.3,4.58-2.47.73-.21,1.28-.26,1.03.3-.26.56-4.49,3.3-6.72,5.31-2.23,2.01-2.61,3.72-5.69,6.98-2.09,2.21-3.33,4.79-3.92,6.22.36,1.14.17,1.84-.1,2.25.02.34.05.64.1.84.17.71-.21,1.65.98,1.65h2.18s-.66.62-1.65,1.39c-.98.77-1.65.6-2.55.41-.9-.19-1.63-1.52-2.35-2.87-.73-1.35-1.26-2.42-.75-4.71.51-2.29.58-3.08.94-4.05.11-.29.24-.54.37-.77.13-.69.33-1.4.6-2.12,1.8-4.75,5.69-12.24,7.23-16.95,1.54-4.71,1.33-6.72,1.8-9.4.32-1.82.7-3.16.97-3.92.14-.4.55-.93.11-1.23-.34-.23-2.03.81-3.4,1.74-1.61,1.09-3.16,2.49-4.71,3.59-3.55,2.52-7.71,4.49-9.79,8.6-1.28,2.53-2.95,5.74-3.08,8.05-.13,2.31-.51-4.24-.77-6.21-.16-1.23-.49-2.85-.59-4.6-.12-2.19.53-4.15.16-6.23-.58.83-1.4,1.8-1.73,2.26-.6.81-1.88,1.84-5.99,4.28-4.11,2.44-5.01,7.02-5.18,7.32-.1.18-.17-.6-.2-1.24-.16.72-.36,1.62-.61,2.52-.47,1.69-1.8,7.09-1.8,7.09h0Zm13.1,6.77c.9-1.26,1.56-1.31,1.98-1.05-2.48,3.3-5.04,9.55-3.44,18.37,1.8,9.93,10.62,10.83,10.62,10.83,0,0,.64.04,1.37.07-4.33,1.86-12.08-.69-14.68-9.41-2.78-9.33,2.35-16.31,4.15-18.81h0Zm71.1,24.53c-.21.86-1.28,4.37-2.14,5.95-.86,1.58-3.17,5.18-5.86,8.26-1.01,1.16-2.17,2.11-3.23,2.85-5.73,4.65-10.59,6.41-15.23,6.65-4.88.26-11.56.13-15.88-.47-4.32-.6-6.85-1.03-10.23-2.31-3.38-1.28-10-4.28-11.49-4.94-1.5-.66-1.18-1.35-1.31-2.08-.13-.73-.58-1.88-.15-2.35.43-.47,1.39-.19,2.33.09.94.28.6.58.66,1.41.06.83.92,1.16,2.08,1.48,1.16.32,1.93.06,3.42.96,1.5.9,3.34,1.33,6.64,2.87,3.3,1.54,9.33,2.46,14.17,2.67,4.84.21,7.66-.21,14.56-3.13,6.89-2.91,10.83-11.69,11.26-12.71.43-1.03,2.44-8.05,3.13-12.8.68-4.75,1.16-13.7-4.02-17.38s-9.97,0-13.78,2.95c-3.81,2.95-6.72,7.62-9.55,11.22-2.83,3.6-7.83,8.69-11.94,12.11-4.11,3.42-7.92,4.97-11.52,5.01-3.6.04-11.94-1.2-12.67-1.46-.73-.26-2.95-.86-4.97-3.34-2.01-2.48-5.48-9.38-5.95-11.22-.47-1.84-.94-5.52-.56-8.73.08-.69,0-1.3-.19-1.83-.51,1.12-1.22,2.88-1.94,5.24-1.33,4.37-1.16,7.96.26,12.93,1.41,4.97,1.5,6.16,6.59,9.72,5.09,3.55,8.22,3.72,9.2,3.94.98.21.34,2.23.64,3.38.3,1.16,1.46,1.58,3.38,2.53,1.93.94,5.31,4.54,16.48,6.25,11.17,1.71,21.49,1.76,25.9.68,4.41-1.07,11-4.79,14.81-9.08,3.81-4.28,6.64-9.03,7.36-10.92.54-1.41.85-3.41,1.06-4.77.21-1.37-.7-2.15-1.31.36h0Zm-41.06-99.76c.48.81.88.8,1.47,1.7-.25.45-.52,1.09-.85,1.94-.59,1.5-2.05,3.98-3.35,6.07,1.81-4.48,2.56-7.39,2.73-9.7Z"/></svg>